<svg xmlns="http://www.w3.org/2000/svg" viewBox="0 0 512 512" role="img" aria-labelledby="title desc">
  <title id="title">Android Termux SSH Bootstrap</title>
  <desc id="desc">A flat icon showing a phone, a terminal prompt, and an SSH link.</desc>
  <defs>
    <linearGradient id="bg" x1="0%" y1="0%" x2="100%" y2="100%">
      <stop offset="0%" stop-color="#0f172a"/>
      <stop offset="100%" stop-color="#164e63"/>
    </linearGradient>
    <linearGradient id="accent" x1="0%" y1="0%" x2="100%" y2="100%">
      <stop offset="0%" stop-color="#38bdf8"/>
      <stop offset="100%" stop-color="#22c55e"/>
    </linearGradient>
  </defs>
  <rect width="512" height="512" rx="96" fill="url(#bg)"/>
  <rect x="116" y="70" width="180" height="372" rx="28" fill="#e2e8f0"/>
  <rect x="132" y="96" width="148" height="304" rx="18" fill="#0b1220"/>
  <circle cx="206" cy="421" r="12" fill="#64748b"/>
  <path d="M158 187l28 28-28 28" fill="none" stroke="#38bdf8" stroke-linecap="round" stroke-linejoin="round" stroke-width="16"/>
  <path d="M205 243h44" fill="none" stroke="#22c55e" stroke-linecap="round" stroke-width="16"/>
  <path d="M330 171c19-18 50-18 68 0l18 18c18 19 18 50 0 68l-22 22" fill="none" stroke="url(#accent)" stroke-linecap="round" stroke-width="24"/>
  <path d="M354 343c-19 18-50 18-68 0l-18-18c-18-19-18-50 0-68l22-22" fill="none" stroke="url(#accent)" stroke-linecap="round" stroke-width="24"/>
  <path d="M309 256h95" fill="none" stroke="#f8fafc" stroke-linecap="round" stroke-width="20"/>
</svg>
